<svg id="Layer_1" data-name="Layer 1" xmlns="http://www.w3.org/2000/svg" viewBox="0 0 637.99 637.99"><defs><style>.cls-1{fill:#000000;fill-rule:evenodd;}</style></defs><title>Steam Logo Vector</title><path class="cls-1" d="M187.89,566.16l-.51-2.43Z" transform="translate(-181.01 -181.01)"/><path class="cls-1" d="M181.44,516.71l0-.64Z" transform="translate(-181.01 -181.01)"/><path class="cls-1" d="M186,556.49v0Z" transform="translate(-181.01 -181.01)"/><path class="cls-1" d="M181.14,508.92c0-.41,0-.82,0-1.22C181.11,508.1,181.13,508.51,181.14,508.92Z" transform="translate(-181.01 -181.01)"/><path class="cls-1" d="M181.36,485.24c0-.63,0-1.25.08-1.88C181.4,484,181.39,484.61,181.36,485.24Z" transform="translate(-181.01 -181.01)"/><path class="cls-1" d="M181.09,493.47c0-.74,0-1.47,0-2.21C181.11,492,181.1,492.73,181.09,493.47Z" transform="translate(-181.01 -181.01)"/><path class="cls-1" d="M181,499.41V500c0,.39,0,.78,0,1.17C181,500.58,181,500,181,499.41Z" transform="translate(-181.01 -181.01)"/><path class="cls-1" d="M400.56,671.83c-16.15,0-44.16-14.41-60-20.92a68.37,68.37,0,1,0,37.61-92.54c31.28,13.21,73,20.12,73,62.82A50.64,50.64,0,0,1,400.56,671.83Z" transform="translate(-181.01 -181.01)"/><path class="cls-1" d="M500,181c-167.92,0-305.53,129.74-318.06,294.45l167.44,70.73a92.49,92.49,0,0,1,53.31-16.82c2.08,0,4.14.08,6.19.21l75.59-110.76h0A121.64,121.64,0,1,1,606.1,540.46c-.93,0-1.86,0-2.79,0L495.42,617.14h0c.09,1.69.15,3.39.15,5.1A92.88,92.88,0,0,1,311.3,638.86L194.06,590.52C233.08,722.6,355.27,819,500,819c176.18,0,319-142.82,319-319S676.18,181,500,181Z" transform="translate(-181.01 -181.01)"/><path class="cls-1" d="M189.68,574.12c-.25-1-.5-2.1-.74-3.15C189.18,572,189.43,573.07,189.68,574.12Z" transform="translate(-181.01 -181.01)"/><path class="cls-1" d="M686.94,418.46a80.48,80.48,0,1,0-80.47,80.48A80.48,80.48,0,0,0,686.94,418.46Zm-141.94,0a61.47,61.47,0,1,1,61.47,61.47A61.47,61.47,0,0,1,545,418.46Z" transform="translate(-181.01 -181.01)"/><path class="cls-1" d="M191.51,581.43c-.27-1-.55-2.09-.81-3.14C191,579.34,191.24,580.38,191.51,581.43Z" transform="translate(-181.01 -181.01)"/><path class="cls-1" d="M193.4,588.31l-.66-2.33Z" transform="translate(-181.01 -181.01)"/></svg>